<?xml version="1.0" encoding="UTF-8" standalone="no"?>
<!DOCTYPE svg PUBLIC "-//W3C//DTD SVG 1.1//EN"
 "http://www.w3.org/Graphics/SVG/1.1/DTD/svg11.dtd">
<!-- Generated by graphviz version 14.1.2 (20260124.0452)
 -->
<!-- Title: G Pages: 1 -->
<svg width="1112pt" height="662pt"
 viewBox="0.00 0.00 1112.00 662.00" xmlns="http://www.w3.org/2000/svg" xmlns:xlink="http://www.w3.org/1999/xlink">
<g id="graph0" class="graph" transform="scale(1 1) rotate(0) translate(4 658.16)">
<title>G</title><style>.edge>path:hover{stroke-width:8}</style>
<polygon fill="white" stroke="none" points="-4,4 -4,-658.16 1108.01,-658.16 1108.01,4 -4,4"/>
<!-- bs4 -->
<g id="node1" class="node">
<title>bs4</title><style>.edge>path:hover{stroke-width:8}</style>
<ellipse fill="#cc3333" stroke="black" cx="400" cy="-636.16" rx="27" ry="18"/>
<text xml:space="preserve" text-anchor="middle" x="400" y="-632.66" font-family="Helvetica,sans-Serif" font-size="10.00" fill="#ffffff">bs4</text>
</g>
<!-- src_web_scrape_scrape -->
<g id="node18" class="node">
<title>src_web_scrape_scrape</title><style>.edge>path:hover{stroke-width:8}</style>
<ellipse fill="#5940c0" stroke="black" cx="217" cy="-397.79" rx="50.56" ry="31.11"/>
<text xml:space="preserve" text-anchor="middle" x="217" y="-406.29" font-family="Helvetica,sans-Serif" font-size="10.00" fill="#ffffff">src.</text>
<text xml:space="preserve" text-anchor="middle" x="217" y="-394.29" font-family="Helvetica,sans-Serif" font-size="10.00" fill="#ffffff">web_scrape.</text>
<text xml:space="preserve" text-anchor="middle" x="217" y="-382.29" font-family="Helvetica,sans-Serif" font-size="10.00" fill="#ffffff">scrape</text>
</g>
<!-- bs4&#45;&gt;src_web_scrape_scrape -->
<g id="edge1" class="edge">
<title>bs4&#45;&gt;src_web_scrape_scrape</title><style>.edge>path:hover{stroke-width:8}</style>
<path fill="none" stroke="black" d="M387.99,-619.65C359.26,-582.54 285.93,-487.82 245.25,-435.28"/>
<polygon fill="#cc3333" stroke="black" points="248.11,-433.25 239.22,-427.49 242.58,-437.54 248.11,-433.25"/>
</g>
<!-- web_scrape_scrape -->
<g id="node23" class="node">
<title>web_scrape_scrape</title><style>.edge>path:hover{stroke-width:8}</style>
<ellipse fill="#c0408c" stroke="black" cx="750" cy="-487.53" rx="50.56" ry="22.63"/>
<text xml:space="preserve" text-anchor="middle" x="750" y="-490.03" font-family="Helvetica,sans-Serif" font-size="10.00" fill="#ffffff">web_scrape.</text>
<text xml:space="preserve" text-anchor="middle" x="750" y="-478.03" font-family="Helvetica,sans-Serif" font-size="10.00" fill="#ffffff">scrape</text>
</g>
<!-- bs4&#45;&gt;web_scrape_scrape -->
<g id="edge2" class="edge">
<title>bs4&#45;&gt;web_scrape_scrape</title><style>.edge>path:hover{stroke-width:8}</style>
<path fill="none" stroke="black" d="M426.45,-631.11C466.39,-624.39 543.89,-608.95 605,-582.16 645.93,-564.21 688.38,-535.4 716.69,-514.47"/>
<polygon fill="#cc3333" stroke="black" points="718.61,-517.41 724.52,-508.61 714.42,-511.8 718.61,-517.41"/>
</g>
<!-- config -->
<g id="node2" class="node">
<title>config</title><style>.edge>path:hover{stroke-width:8}</style>
<ellipse fill="#e9900c" stroke="black" cx="389" cy="-397.79" rx="27" ry="18"/>
<text xml:space="preserve" text-anchor="middle" x="389" y="-394.29" font-family="Helvetica,sans-Serif" font-size="10.00" fill="#000000">config</text>
</g>
<!-- load_data -->
<g id="node5" class="node">
<title>load_data</title><style>.edge>path:hover{stroke-width:8}</style>
<ellipse fill="#33995c" stroke="black" cx="750" cy="-299.56" rx="34.88" ry="18"/>
<text xml:space="preserve" text-anchor="middle" x="750" y="-296.06" font-family="Helvetica,sans-Serif" font-size="10.00" fill="#ffffff">load_data</text>
</g>
<!-- config&#45;&gt;load_data -->
<g id="edge3" class="edge">
<title>config&#45;&gt;load_data</title><style>.edge>path:hover{stroke-width:8}</style>
<path fill="none" stroke="black" d="M411.66,-387.75C428.21,-381.34 451.28,-372.83 472,-366.68 539.38,-346.65 557.62,-346.97 626,-330.68 653.35,-324.16 684.05,-316.7 708.07,-310.84"/>
<polygon fill="#e9900c" stroke="black" points="708.58,-314.32 717.46,-308.55 706.92,-307.52 708.58,-314.32"/>
</g>
<!-- query_data -->
<g id="node8" class="node">
<title>query_data</title><style>.edge>path:hover{stroke-width:8}</style>
<ellipse fill="#466ca4" stroke="black" cx="230" cy="-299.56" rx="38.49" ry="18"/>
<text xml:space="preserve" text-anchor="middle" x="230" y="-296.06" font-family="Helvetica,sans-Serif" font-size="10.00" fill="#ffffff">query_data</text>
</g>
<!-- config&#45;&gt;query_data -->
<g id="edge4" class="edge">
<title>config&#45;&gt;query_data</title><style>.edge>path:hover{stroke-width:8}</style>
<path fill="none" stroke="black" d="M369.5,-384.99C342.94,-368.91 295.01,-339.91 262.84,-320.44"/>
<polygon fill="#e9900c" stroke="black" points="264.67,-317.45 254.3,-315.27 261.04,-323.44 264.67,-317.45"/>
</g>
<!-- src_init_db -->
<g id="node10" class="node">
<title>src_init_db</title><style>.edge>path:hover{stroke-width:8}</style>
<ellipse fill="#55439d" stroke="black" cx="648" cy="-116.23" rx="36.68" ry="18"/>
<text xml:space="preserve" text-anchor="middle" x="648" y="-112.73" font-family="Helvetica,sans-Serif" font-size="10.00" fill="#ffffff">src.init_db</text>
</g>
<!-- config&#45;&gt;src_init_db -->
<g id="edge5" class="edge">
<title>config&#45;&gt;src_init_db</title><style>.edge>path:hover{stroke-width:8}</style>
<path fill="none" stroke="black" d="M372,-298.56C383.69,-233.3 438.14,-248.23 486,-202.34"/>
<path fill="none" stroke="black" d="M486,-200.34C497.42,-189.39 492.71,-180.19 505,-170.23 533.35,-147.23 572.65,-133.63 602.87,-125.98"/>
<polygon fill="#e9900c" stroke="black" points="603.59,-129.4 612.5,-123.68 601.96,-122.6 603.59,-129.4"/>
</g>
<!-- src_load_data -->
<g id="node11" class="node">
<title>src_load_data</title><style>.edge>path:hover{stroke-width:8}</style>
<ellipse fill="#4d3d8f" stroke="black" cx="559" cy="-201.34" rx="44.8" ry="18"/>
<text xml:space="preserve" text-anchor="middle" x="559" y="-197.84" font-family="Helvetica,sans-Serif" font-size="10.00" fill="#ffffff">src.load_data</text>
</g>
<!-- config&#45;&gt;src_load_data -->
<g id="edge6" class="edge">
<title>config&#45;&gt;src_load_data</title><style>.edge>path:hover{stroke-width:8}</style>
<path fill="none" stroke="black" d="M397.13,-380.54C410.45,-354.89 438.81,-304.26 472,-268.45 488,-251.2 508.91,-235.14 526.23,-223.17"/>
<polygon fill="#e9900c" stroke="black" points="527.84,-226.31 534.17,-217.81 523.92,-220.51 527.84,-226.31"/>
</g>
<!-- src_query_data -->
<g id="node12" class="node">
<title>src_query_data</title><style>.edge>path:hover{stroke-width:8}</style>
<ellipse fill="#5946a4" stroke="black" cx="372" cy="-201.34" rx="48.41" ry="18"/>
<text xml:space="preserve" text-anchor="middle" x="372" y="-197.84" font-family="Helvetica,sans-Serif" font-size="10.00" fill="#ffffff">src.query_data</text>
</g>
<!-- config&#45;&gt;src_query_data -->
<g id="edge7" class="edge">
<title>config&#45;&gt;src_query_data</title><style>.edge>path:hover{stroke-width:8}</style>
<path fill="none" stroke="black" d="M372,-298.56C376.03,-276.06 375.75,-250.13 374.62,-230.86"/>
<polygon fill="#e9900c" stroke="black" points="378.12,-230.77 373.92,-221.04 371.14,-231.27 378.12,-230.77"/>
<path fill="none" stroke="black" d="M382.45,-380.1C375.76,-360.9 367.01,-328.45 372,-300.56"/>
</g>
<!-- src_web_app_app -->
<g id="node13" class="node">
<title>src_web_app_app</title><style>.edge>path:hover{stroke-width:8}</style>
<ellipse fill="#3c2b82" stroke="black" cx="627" cy="-31.11" rx="41.01" ry="31.11"/>
<text xml:space="preserve" text-anchor="middle" x="627" y="-39.61" font-family="Helvetica,sans-Serif" font-size="10.00" fill="#ffffff">src.</text>
<text xml:space="preserve" text-anchor="middle" x="627" y="-27.61" font-family="Helvetica,sans-Serif" font-size="10.00" fill="#ffffff">web_app.</text>
<text xml:space="preserve" text-anchor="middle" x="627" y="-15.61" font-family="Helvetica,sans-Serif" font-size="10.00" fill="#ffffff">app</text>
</g>
<!-- config&#45;&gt;src_web_app_app -->
<g id="edge8" class="edge">
<title>config&#45;&gt;src_web_app_app</title><style>.edge>path:hover{stroke-width:8}</style>
<path fill="none" stroke="black" d="M373.13,-383.06C332.6,-346.61 232.77,-247.09 296,-202.34"/>
</g>
<!-- dotenv -->
<g id="node3" class="node">
<title>dotenv</title><style>.edge>path:hover{stroke-width:8}</style>
<ellipse fill="#a9c247" stroke="black" cx="1063" cy="-487.53" rx="27.21" ry="18"/>
<text xml:space="preserve" text-anchor="middle" x="1063" y="-484.03" font-family="Helvetica,sans-Serif" font-size="10.00" fill="#000000">dotenv</text>
</g>
<!-- src_web_app_config -->
<g id="node14" class="node">
<title>src_web_app_config</title><style>.edge>path:hover{stroke-width:8}</style>
<ellipse fill="#614cb3" stroke="black" cx="1063" cy="-201.34" rx="41.01" ry="31.11"/>
<text xml:space="preserve" text-anchor="middle" x="1063" y="-209.84" font-family="Helvetica,sans-Serif" font-size="10.00" fill="#ffffff">src.</text>
<text xml:space="preserve" text-anchor="middle" x="1063" y="-197.84" font-family="Helvetica,sans-Serif" font-size="10.00" fill="#ffffff">web_app.</text>
<text xml:space="preserve" text-anchor="middle" x="1063" y="-185.84" font-family="Helvetica,sans-Serif" font-size="10.00" fill="#ffffff">config</text>
</g>
<!-- dotenv&#45;&gt;src_web_app_config -->
<g id="edge9" class="edge">
<title>dotenv&#45;&gt;src_web_app_config</title><style>.edge>path:hover{stroke-width:8}</style>
<path fill="none" stroke="black" d="M1063,-396.79C1052.95,-344.86 1055.2,-283.67 1058.46,-244"/>
<polygon fill="#a9c247" stroke="black" points="1061.94,-244.44 1059.33,-234.16 1054.96,-243.82 1061.94,-244.44"/>
</g>
<!-- web_app_config -->
<g id="node20" class="node">
<title>web_app_config</title><style>.edge>path:hover{stroke-width:8}</style>
<ellipse fill="#a640c0" stroke="black" cx="984" cy="-299.56" rx="50.66" ry="18"/>
<text xml:space="preserve" text-anchor="middle" x="984" y="-296.06" font-family="Helvetica,sans-Serif" font-size="10.00" fill="#ffffff">web_app.config</text>
</g>
<!-- dotenv&#45;&gt;web_app_config -->
<g id="edge10" class="edge">
<title>dotenv&#45;&gt;web_app_config</title><style>.edge>path:hover{stroke-width:8}</style>
<path fill="none" stroke="black" d="M1064.93,-469.2C1066.46,-451.36 1067.66,-422.87 1063,-398.79"/>
<path fill="none" stroke="black" d="M1063,-396.79C1057.23,-366.98 1034,-340.91 1014.22,-323.45"/>
<polygon fill="#a9c247" stroke="black" points="1016.5,-320.8 1006.6,-317.03 1011.99,-326.15 1016.5,-320.8"/>
</g>
<!-- flask -->
<g id="node4" class="node">
<title>flask</title><style>.edge>path:hover{stroke-width:8}</style>
<ellipse fill="#59c040" stroke="black" cx="27" cy="-299.56" rx="27" ry="18"/>
<text xml:space="preserve" text-anchor="middle" x="27" y="-296.06" font-family="Helvetica,sans-Serif" font-size="10.00" fill="#000000">flask</text>
</g>
<!-- flask&#45;&gt;src_web_app_app -->
<g id="edge11" class="edge">
<title>flask&#45;&gt;src_web_app_app</title><style>.edge>path:hover{stroke-width:8}</style>
<path fill="none" stroke="black" d="M41.38,-284.13C47.6,-278.57 55.22,-272.57 63,-268.45 158.15,-218.12 208.14,-264.53 296,-202.34"/>
<path fill="none" stroke="black" d="M448,-115.23C488.18,-85.13 541.01,-62.25 578.85,-48.2"/>
<polygon fill="#59c040" stroke="black" points="579.96,-51.52 588.16,-44.81 577.57,-44.94 579.96,-51.52"/>
<path fill="none" stroke="black" d="M296,-200.34C308.92,-191.2 302.83,-180.34 315,-170.23 363.93,-129.55 397.07,-155.37 448,-117.23"/>
</g>
<!-- load_data&#45;&gt;src_init_db -->
<g id="edge12" class="edge">
<title>load_data&#45;&gt;src_init_db</title><style>.edge>path:hover{stroke-width:8}</style>
<path fill="none" stroke="black" d="M783,-200.34C762.99,-165.13 721.38,-142.94 689.61,-130.43"/>
<polygon fill="#33995c" stroke="black" points="690.85,-127.15 680.25,-126.93 688.4,-133.71 690.85,-127.15"/>
<path fill="none" stroke="black" d="M763.43,-282.47C778.19,-262.71 797.92,-228.59 783,-202.34"/>
</g>
<!-- load_data&#45;&gt;src_web_app_app -->
<g id="edge13" class="edge">
<title>load_data&#45;&gt;src_web_app_app</title><style>.edge>path:hover{stroke-width:8}</style>
<path fill="none" stroke="black" d="M859,-115.23C818.75,-57.59 734.59,-39.7 679.47,-34.28"/>
<polygon fill="#33995c" stroke="black" points="679.95,-30.81 669.69,-33.43 679.35,-37.78 679.95,-30.81"/>
<path fill="none" stroke="black" d="M821,-200.34C836.19,-162.67 882.25,-150.53 859,-117.23"/>
<path fill="none" stroke="black" d="M765.38,-283.1C782.08,-265.27 808.11,-234.3 821,-202.34"/>
</g>
<!-- psycopg -->
<g id="node6" class="node">
<title>psycopg</title><style>.edge>path:hover{stroke-width:8}</style>
<ellipse fill="#06f9f9" stroke="black" cx="394" cy="-487.53" rx="31.72" ry="18"/>
<text xml:space="preserve" text-anchor="middle" x="394" y="-484.03" font-family="Helvetica,sans-Serif" font-size="10.00" fill="#000000">psycopg</text>
</g>
<!-- psycopg&#45;&gt;config -->
<g id="edge14" class="edge">
<title>psycopg&#45;&gt;config</title><style>.edge>path:hover{stroke-width:8}</style>
<path fill="none" stroke="black" d="M393.01,-469.19C392.33,-457.3 391.42,-441.23 390.63,-427.45"/>
<polygon fill="#06f9f9" stroke="black" points="394.14,-427.38 390.07,-417.6 387.15,-427.78 394.14,-427.38"/>
</g>
<!-- psycopg&#45;&gt;load_data -->
<g id="edge15" class="edge">
<title>psycopg&#45;&gt;load_data</title><style>.edge>path:hover{stroke-width:8}</style>
<path fill="none" stroke="black" d="M424.42,-481.66C506.12,-468.55 724.58,-433.19 731,-428.9 744.16,-420.12 742.23,-412.57 750,-398.79"/>
<path fill="none" stroke="black" d="M750,-396.79C761.53,-376.32 760.4,-349.31 757.03,-329.12"/>
<polygon fill="#06f9f9" stroke="black" points="760.47,-328.45 755.1,-319.31 753.6,-329.8 760.47,-328.45"/>
</g>
<!-- psycopg&#45;&gt;query_data -->
<g id="edge16" class="edge">
<title>psycopg&#45;&gt;query_data</title><style>.edge>path:hover{stroke-width:8}</style>
<path fill="none" stroke="black" d="M374.35,-473.06C352.69,-457.37 318.03,-429.64 296,-398.79"/>
</g>
<!-- src_config -->
<g id="node9" class="node">
<title>src_config</title><style>.edge>path:hover{stroke-width:8}</style>
<ellipse fill="#5d49ac" stroke="black" cx="549" cy="-299.56" rx="35.33" ry="18"/>
<text xml:space="preserve" text-anchor="middle" x="549" y="-296.06" font-family="Helvetica,sans-Serif" font-size="10.00" fill="#ffffff">src.config</text>
</g>
<!-- psycopg&#45;&gt;src_config -->
<g id="edge17" class="edge">
<title>psycopg&#45;&gt;src_config</title><style>.edge>path:hover{stroke-width:8}</style>
<path fill="none" stroke="black" d="M486,-396.79C496.39,-370.54 514.51,-343.94 528.66,-325.38"/>
<polygon fill="#06f9f9" stroke="black" points="531.31,-327.68 534.71,-317.65 525.79,-323.37 531.31,-327.68"/>
</g>
<!-- psycopg&#45;&gt;src_init_db -->
<g id="edge18" class="edge">
<title>psycopg&#45;&gt;src_init_db</title><style>.edge>path:hover{stroke-width:8}</style>
<path fill="none" stroke="black" d="M486,-298.56C488.53,-255.87 455.13,-231.94 486,-202.34"/>
</g>
<!-- psycopg&#45;&gt;src_load_data -->
<g id="edge19" class="edge">
<title>psycopg&#45;&gt;src_load_data</title><style>.edge>path:hover{stroke-width:8}</style>
<path fill="none" stroke="black" d="M486,-298.56C487.75,-268.98 509.82,-242.72 529.24,-225.15"/>
<polygon fill="#06f9f9" stroke="black" points="531.45,-227.86 536.75,-218.69 526.89,-222.56 531.45,-227.86"/>
</g>
<!-- psycopg&#45;&gt;src_query_data -->
<g id="edge20" class="edge">
<title>psycopg&#45;&gt;src_query_data</title><style>.edge>path:hover{stroke-width:8}</style>
<path fill="none" stroke="black" d="M415.53,-473.99C438.25,-459.31 472.6,-432.65 486,-398.79"/>
<path fill="none" stroke="black" d="M486,-396.79C499.68,-362.22 430.27,-271.87 393.56,-227.56"/>
<polygon fill="#06f9f9" stroke="black" points="396.34,-225.43 387.24,-220.01 390.97,-229.92 396.34,-225.43"/>
</g>
<!-- psycopg&#45;&gt;src_web_app_app -->
<g id="edge21" class="edge">
<title>psycopg&#45;&gt;src_web_app_app</title><style>.edge>path:hover{stroke-width:8}</style>
<path fill="none" stroke="black" d="M486,-396.79C504.24,-358.1 483.47,-343.26 486,-300.56"/>
<path fill="none" stroke="black" d="M486,-298.56C490.86,-216.36 382.09,-166.59 448,-117.23"/>
</g>
<!-- psycopg_sql -->
<g id="node7" class="node">
<title>psycopg_sql</title><style>.edge>path:hover{stroke-width:8}</style>
<ellipse fill="#10f9f9" stroke="black" cx="555" cy="-564.16" rx="41.19" ry="18"/>
<text xml:space="preserve" text-anchor="middle" x="555" y="-560.66" font-family="Helvetica,sans-Serif" font-size="10.00" fill="#000000">psycopg.sql</text>
</g>
<!-- psycopg_sql&#45;&gt;config -->
<g id="edge22" class="edge">
<title>psycopg_sql&#45;&gt;config</title><style>.edge>path:hover{stroke-width:8}</style>
<path fill="none" stroke="black" d="M334,-486.53C318.67,-463.48 341.68,-436.41 362.46,-418.5"/>
<polygon fill="#10f9f9" stroke="black" points="364.42,-421.42 369.94,-412.38 359.98,-416 364.42,-421.42"/>
</g>
<!-- psycopg_sql&#45;&gt;load_data -->
<g id="edge23" class="edge">
<title>psycopg_sql&#45;&gt;load_data</title><style>.edge>path:hover{stroke-width:8}</style>
<path fill="none" stroke="black" d="M583.9,-550.86C604.15,-541.43 631.21,-527.18 652,-510.16 672.32,-493.52 671.63,-483.68 690,-464.9 706.96,-447.57 715.26,-447.35 731,-428.9 741.27,-416.87 742.23,-412.57 750,-398.79"/>
</g>
<!-- psycopg_sql&#45;&gt;query_data -->
<g id="edge24" class="edge">
<title>psycopg_sql&#45;&gt;query_data</title><style>.edge>path:hover{stroke-width:8}</style>
<path fill="none" stroke="black" d="M334,-486.53C310.46,-451.15 320.69,-433.37 296,-398.79"/>
<path fill="none" stroke="black" d="M296,-396.79C286.8,-383.91 285.81,-379.82 277,-366.68 267.91,-353.11 257.4,-338.26 248.64,-326.08"/>
<polygon fill="#10f9f9" stroke="black" points="251.62,-324.24 242.93,-318.19 245.95,-328.34 251.62,-324.24"/>
<path fill="none" stroke="black" d="M513.51,-563.15C461.1,-560.59 373.03,-547.2 334,-488.53"/>
</g>
<!-- psycopg_sql&#45;&gt;src_config -->
<g id="edge25" class="edge">
<title>psycopg_sql&#45;&gt;src_config</title><style>.edge>path:hover{stroke-width:8}</style>
<path fill="none" stroke="black" d="M545.7,-546.56C540.54,-536.39 534.65,-522.92 532,-510.16 527.91,-490.46 526.38,-484.21 532,-464.9 541.72,-431.47 562.67,-431.7 574,-398.79"/>
<path fill="none" stroke="black" d="M574,-396.79C580.23,-373.4 572.13,-346.75 563.53,-327.44"/>
<polygon fill="#10f9f9" stroke="black" points="566.79,-326.14 559.31,-318.63 560.47,-329.16 566.79,-326.14"/>
</g>
<!-- psycopg_sql&#45;&gt;src_init_db -->
<g id="edge26" class="edge">
<title>psycopg_sql&#45;&gt;src_init_db</title><style>.edge>path:hover{stroke-width:8}</style>
<path fill="none" stroke="black" d="M821,-298.56C815.68,-252.89 805.72,-242.31 783,-202.34"/>
<path fill="none" stroke="black" d="M595.89,-560.57C660.74,-555.55 782.65,-542.03 810,-510.16 870.74,-439.36 831.79,-393.22 821,-300.56"/>
</g>
<!-- psycopg_sql&#45;&gt;src_load_data -->
<g id="edge27" class="edge">
<title>psycopg_sql&#45;&gt;src_load_data</title><style>.edge>path:hover{stroke-width:8}</style>
<path fill="none" stroke="black" d="M612,-298.56C604.21,-273.35 589.35,-247.28 577.35,-228.64"/>
<polygon fill="#10f9f9" stroke="black" points="580.31,-226.78 571.87,-220.37 574.47,-230.64 580.31,-226.78"/>
<path fill="none" stroke="black" d="M574,-396.79C585.83,-352.36 625.58,-344.49 612,-300.56"/>
</g>
<!-- psycopg_sql&#45;&gt;src_query_data -->
<g id="edge28" class="edge">
<title>psycopg_sql&#45;&gt;src_query_data</title><style>.edge>path:hover{stroke-width:8}</style>
<path fill="none" stroke="black" d="M334,-486.53C280.35,-405.88 330.22,-283.63 357.23,-229.63"/>
<polygon fill="#10f9f9" stroke="black" points="360.3,-231.31 361.75,-220.82 354.07,-228.11 360.3,-231.31"/>
</g>
<!-- psycopg_sql&#45;&gt;src_web_app_app -->
<g id="edge29" class="edge">
<title>psycopg_sql&#45;&gt;src_web_app_app</title><style>.edge>path:hover{stroke-width:8}</style>
<path fill="none" stroke="black" d="M821,-298.56C813.22,-256.51 805,-242 821,-202.34"/>
</g>
<!-- query_data&#45;&gt;src_web_app_app -->
<g id="edge30" class="edge">
<title>query_data&#45;&gt;src_web_app_app</title><style>.edge>path:hover{stroke-width:8}</style>
<path fill="none" stroke="black" d="M237.12,-281.54C247.08,-259.84 267.23,-222.7 296,-202.34"/>
</g>
<!-- src_web_app_run -->
<g id="node15" class="node">
<title>src_web_app_run</title><style>.edge>path:hover{stroke-width:8}</style>
<ellipse fill="#5d49ac" stroke="black" cx="897" cy="-31.11" rx="41.01" ry="31.11"/>
<text xml:space="preserve" text-anchor="middle" x="897" y="-39.61" font-family="Helvetica,sans-Serif" font-size="10.00" fill="#ffffff">src.</text>
<text xml:space="preserve" text-anchor="middle" x="897" y="-27.61" font-family="Helvetica,sans-Serif" font-size="10.00" fill="#ffffff">web_app.</text>
<text xml:space="preserve" text-anchor="middle" x="897" y="-15.61" font-family="Helvetica,sans-Serif" font-size="10.00" fill="#ffffff">run</text>
</g>
<!-- src_web_scrape_clean -->
<g id="node16" class="node">
<title>src_web_scrape_clean</title><style>.edge>path:hover{stroke-width:8}</style>
<ellipse fill="#6047c2" stroke="black" cx="98" cy="-397.79" rx="50.56" ry="31.11"/>
<text xml:space="preserve" text-anchor="middle" x="98" y="-406.29" font-family="Helvetica,sans-Serif" font-size="10.00" fill="#ffffff">src.</text>
<text xml:space="preserve" text-anchor="middle" x="98" y="-394.29" font-family="Helvetica,sans-Serif" font-size="10.00" fill="#ffffff">web_scrape.</text>
<text xml:space="preserve" text-anchor="middle" x="98" y="-382.29" font-family="Helvetica,sans-Serif" font-size="10.00" fill="#ffffff">clean</text>
</g>
<!-- src_web_scrape_main -->
<g id="node17" class="node">
<title>src_web_scrape_main</title><style>.edge>path:hover{stroke-width:8}</style>
<ellipse fill="#5d49ac" stroke="black" cx="123" cy="-299.56" rx="50.56" ry="31.11"/>
<text xml:space="preserve" text-anchor="middle" x="123" y="-308.06" font-family="Helvetica,sans-Serif" font-size="10.00" fill="#ffffff">src.</text>
<text xml:space="preserve" text-anchor="middle" x="123" y="-296.06" font-family="Helvetica,sans-Serif" font-size="10.00" fill="#ffffff">web_scrape.</text>
<text xml:space="preserve" text-anchor="middle" x="123" y="-284.06" font-family="Helvetica,sans-Serif" font-size="10.00" fill="#ffffff">main</text>
</g>
<!-- src_web_scrape_clean&#45;&gt;src_web_scrape_main -->
<g id="edge31" class="edge">
<title>src_web_scrape_clean&#45;&gt;src_web_scrape_main</title><style>.edge>path:hover{stroke-width:8}</style>
<path fill="none" stroke="black" d="M105.84,-366.61C107.89,-358.72 110.13,-350.09 112.3,-341.75"/>
<polygon fill="#6047c2" stroke="black" points="115.68,-342.66 114.81,-332.1 108.9,-340.9 115.68,-342.66"/>
</g>
<!-- src_web_scrape_scrape&#45;&gt;src_web_scrape_main -->
<g id="edge32" class="edge">
<title>src_web_scrape_scrape&#45;&gt;src_web_scrape_main</title><style>.edge>path:hover{stroke-width:8}</style>
<path fill="none" stroke="black" d="M191.31,-370.49C180.54,-359.46 167.86,-346.49 156.38,-334.73"/>
<polygon fill="#5940c0" stroke="black" points="159.2,-332.62 149.71,-327.91 154.2,-337.51 159.2,-332.62"/>
</g>
<!-- web_app -->
<g id="node19" class="node">
<title>web_app</title><style>.edge>path:hover{stroke-width:8}</style>
<ellipse fill="#a947c2" stroke="black" cx="882" cy="-299.56" rx="33.07" ry="18"/>
<text xml:space="preserve" text-anchor="middle" x="882" y="-296.06" font-family="Helvetica,sans-Serif" font-size="10.00" fill="#ffffff">web_app</text>
</g>
<!-- web_app&#45;&gt;src_web_app_app -->
<g id="edge33" class="edge">
<title>web_app&#45;&gt;src_web_app_app</title><style>.edge>path:hover{stroke-width:8}</style>
<path fill="none" stroke="black" d="M859,-200.34C858.81,-163.4 880.15,-147.51 859,-117.23"/>
<path fill="none" stroke="black" d="M875.4,-281.47C868.66,-262.46 859.15,-230.68 859,-202.34"/>
</g>
<!-- web_app&#45;&gt;src_web_app_run -->
<g id="edge34" class="edge">
<title>web_app&#45;&gt;src_web_app_run</title><style>.edge>path:hover{stroke-width:8}</style>
<path fill="none" stroke="black" d="M859,-200.34C858.79,-159.72 892.55,-157.6 897,-117.23"/>
<path fill="none" stroke="black" d="M897,-115.23C898.48,-101.8 898.88,-87.09 898.79,-73.82"/>
<polygon fill="#a947c2" stroke="black" points="902.29,-74.05 898.62,-64.11 895.29,-74.17 902.29,-74.05"/>
</g>
<!-- web_app_config&#45;&gt;src_web_app_app -->
<g id="edge35" class="edge">
<title>web_app_config&#45;&gt;src_web_app_app</title><style>.edge>path:hover{stroke-width:8}</style>
<path fill="none" stroke="black" d="M964.51,-282.64C944.4,-265.1 913.7,-235.03 897,-202.34"/>
<path fill="none" stroke="black" d="M897,-200.34C878.52,-164.17 882.25,-150.53 859,-117.23"/>
</g>
<!-- web_app_config&#45;&gt;src_web_app_run -->
<g id="edge36" class="edge">
<title>web_app_config&#45;&gt;src_web_app_run</title><style>.edge>path:hover{stroke-width:8}</style>
<path fill="none" stroke="black" d="M897,-200.34C880.2,-167.44 892.95,-153.94 897,-117.23"/>
</g>
<!-- web_scrape -->
<g id="node21" class="node">
<title>web_scrape</title><style>.edge>path:hover{stroke-width:8}</style>
<ellipse fill="#c24791" stroke="black" cx="681" cy="-397.79" rx="41.19" ry="18"/>
<text xml:space="preserve" text-anchor="middle" x="681" y="-394.29" font-family="Helvetica,sans-Serif" font-size="10.00" fill="#ffffff">web_scrape</text>
</g>
<!-- web_scrape&#45;&gt;load_data -->
<g id="edge37" class="edge">
<title>web_scrape&#45;&gt;load_data</title><style>.edge>path:hover{stroke-width:8}</style>
<path fill="none" stroke="black" d="M692.7,-380.47C703.41,-365.54 719.42,-343.21 731.79,-325.96"/>
<polygon fill="#c24791" stroke="black" points="734.37,-328.36 737.36,-318.2 728.68,-324.28 734.37,-328.36"/>
</g>
<!-- web_scrape&#45;&gt;src_load_data -->
<g id="edge38" class="edge">
<title>web_scrape&#45;&gt;src_load_data</title><style>.edge>path:hover{stroke-width:8}</style>
<path fill="none" stroke="black" d="M664.53,-380.92C647.47,-363.2 621.96,-332.77 612,-300.56"/>
</g>
<!-- web_scrape_clean -->
<g id="node22" class="node">
<title>web_scrape_clean</title><style>.edge>path:hover{stroke-width:8}</style>
<ellipse fill="#c24791" stroke="black" cx="592" cy="-487.53" rx="50.56" ry="22.63"/>
<text xml:space="preserve" text-anchor="middle" x="592" y="-490.03" font-family="Helvetica,sans-Serif" font-size="10.00" fill="#ffffff">web_scrape.</text>
<text xml:space="preserve" text-anchor="middle" x="592" y="-478.03" font-family="Helvetica,sans-Serif" font-size="10.00" fill="#ffffff">clean</text>
</g>
<!-- web_scrape_clean&#45;&gt;load_data -->
<g id="edge39" class="edge">
<title>web_scrape_clean&#45;&gt;load_data</title><style>.edge>path:hover{stroke-width:8}</style>
<path fill="none" stroke="black" d="M631.59,-473.15C666.9,-460.68 715.37,-442.08 731,-428.9 743.1,-418.7 742.23,-412.57 750,-398.79"/>
</g>
<!-- web_scrape_clean&#45;&gt;src_load_data -->
<g id="edge40" class="edge">
<title>web_scrape_clean&#45;&gt;src_load_data</title><style>.edge>path:hover{stroke-width:8}</style>
<path fill="none" stroke="black" d="M603.06,-465.05C610.8,-447.15 618.67,-421.09 612,-398.79"/>
<path fill="none" stroke="black" d="M612,-396.79C599.74,-355.82 624.63,-341.42 612,-300.56"/>
</g>
<!-- web_scrape_scrape&#45;&gt;load_data -->
<g id="edge41" class="edge">
<title>web_scrape_scrape&#45;&gt;load_data</title><style>.edge>path:hover{stroke-width:8}</style>
<path fill="none" stroke="black" d="M744.37,-464.84C740.76,-446.11 738.63,-418.96 750,-398.79"/>
</g>
<!-- web_scrape_scrape&#45;&gt;src_load_data -->
<g id="edge42" class="edge">
<title>web_scrape_scrape&#45;&gt;src_load_data</title><style>.edge>path:hover{stroke-width:8}</style>
<path fill="none" stroke="black" d="M706.66,-475.44C671.01,-463.46 624.41,-440.27 612,-398.79"/>
</g>
</g>
</svg>
